<?xml version="1.0" standalone="no"?><!-- Generator: Gravit.io --><svg xmlns="http://www.w3.org/2000/svg" xmlns:xlink="http://www.w3.org/1999/xlink" style="isolation:isolate" viewBox="-294.032 299.968 1691.583 1265.653" width="1691.583" height="1265.653"><g id="Group"><g id="_x23_000000ff"><path d=" M 764.368 345.265 C 777.116 325.97 795.61 311.086 815.718 300 C 860.915 398.569 906.031 497.172 951.316 595.7 C 953.372 577.464 955.109 559.187 957.029 540.931 C 959.824 513.142 964.776 485.252 975.421 459.302 C 980.814 446.337 987.782 433.888 997.076 423.305 C 1005.061 414.085 1014.933 406.459 1026.011 401.337 C 1039.105 395.197 1053.705 392.796 1068.094 392.925 C 1074.831 393.196 1081.554 393.793 1088.278 394.37 C 1081.548 460.096 1082.301 526.284 1083.698 592.254 C 1086.432 697.384 1094.261 802.337 1105.381 906.903 C 1105.713 908.674 1106.962 910.085 1107.837 911.625 C 1201.752 1063.749 1295.674 1215.88 1389.596 1368.005 C 1392.174 1372.435 1395.206 1376.621 1397.52 1381.2 C 1386.373 1406.797 1373.646 1431.743 1358.971 1455.502 C 1345.267 1477.591 1329.683 1498.616 1311.481 1517.232 C 1291.671 1537.382 1268.414 1554.614 1242.057 1565.163 C 1241.318 1565.387 1240.429 1566.045 1239.968 1565.075 C 1219.662 1539.695 1199.554 1514.145 1179.221 1488.792 C 1172.695 1487.171 1165.985 1486.303 1159.438 1484.735 C 1103 1472.707 1048.793 1449.884 1001.242 1417.123 C 980.007 1402.584 960.061 1386.18 941.526 1368.337 C 936.065 1363.168 930.916 1357.679 925.563 1352.414 C 895.393 1348.14 865.122 1344.436 834.925 1340.345 C 819.124 1338.228 803.29 1336.336 787.523 1334.015 C 763.215 1321.709 739.103 1308.961 714.87 1296.491 C 683.594 1280.263 652.305 1264.063 621.029 1247.848 C 617.664 1245.948 613.987 1244.551 610.833 1242.319 C 620.534 1217.529 632.502 1193.316 649.225 1172.461 C 657.732 1162.02 667.42 1152.42 678.587 1144.835 C 700.63 1129.686 728.655 1123.492 754.985 1128.315 C 778.14 1132.42 799.66 1142.834 819.348 1155.398 C 820.189 1156.083 821.234 1156.043 822.184 1155.615 C 847.204 1146.443 872.299 1137.406 897.849 1129.794 C 900.224 1115.534 902.001 1101.171 903.5 1086.789 C 904.45 1076.192 905.407 1065.567 905.264 1054.916 C 874.755 1027.175 846.031 997.216 821.892 963.708 C 806.899 974.081 791.58 984.007 775.739 993.05 C 763.371 1000.296 750.643 1006.917 737.909 1013.484 C 735.413 1041.151 730.894 1069.177 719.341 1094.692 C 714.09 1106.382 707.292 1117.433 698.784 1127.047 C 689.286 1137.8 677.502 1146.538 664.429 1152.454 C 646.491 1160.71 626.559 1163.75 606.932 1163.675 C 606.898 1090.106 606.945 1016.531 606.911 942.955 C 606.925 941.632 606.877 940.133 607.929 939.162 C 655.066 885.248 702.109 831.238 749.259 777.336 C 745.304 772.425 740.582 768.151 736.308 763.51 C 699.015 724.589 661.661 685.728 624.394 646.793 C 605.025 625.958 586.959 603.672 572.983 578.814 C 562.61 560.117 554.469 539.744 552.366 518.312 C 550.527 501.792 553.003 485.008 558.037 469.241 C 564.625 448.861 575.697 430.218 588.567 413.203 C 642.339 461.446 696.172 509.628 749.951 557.864 C 763.215 569.635 776.275 581.637 789.633 593.299 C 779.802 564.683 768.14 536.677 759.511 507.654 C 750.501 476.996 744.314 445.218 744.524 413.162 C 744.639 389.295 750.894 365.143 764.368 345.265 Z  M 791.729 365.19 C 780.861 378.399 775.087 395.442 774.714 412.47 C 774.144 433.454 778.154 454.221 782.964 474.546 C 790.209 504.085 800.108 532.898 810.807 561.352 C 820.535 586.962 830.237 612.593 839.966 638.211 C 841.024 640.192 843.059 641.413 844.633 642.967 C 877.646 672.818 910.638 702.696 943.63 732.567 C 963.331 750.274 982.823 768.218 1002.626 785.803 C 998.447 776.176 993.901 766.719 989.586 757.16 C 927.693 622.383 865.943 487.545 804.002 352.802 C 799.585 356.595 795.379 360.652 791.729 365.19 Z  M 1031.744 439.668 C 1020.679 446.961 1011.378 456.928 1004.966 468.529 C 998.026 480.822 994.193 494.574 991.439 508.339 C 986.344 534.628 985.021 561.48 984.566 588.197 C 984.159 615.823 986.194 643.387 987.945 670.932 C 988.046 672.573 988.067 674.283 988.813 675.796 C 1014.573 731.651 1040.319 787.513 1066.052 843.382 C 1065.828 839.087 1065.225 834.82 1064.831 830.546 C 1054.526 726.129 1050.679 621.169 1050.849 516.27 C 1050.984 487.192 1052.47 458.156 1053.834 429.119 C 1046.073 431.71 1038.603 435.204 1031.744 439.668 Z  M 594.733 466.86 C 588.146 480.734 583.533 496.005 584.367 511.514 C 584.889 520.042 586.85 528.434 589.611 536.507 C 595.629 553.746 605.046 569.574 615.453 584.493 C 632.129 608.129 651.593 629.629 671.898 650.172 C 710.494 688.924 749.137 727.621 787.747 766.353 C 788.459 767.187 789.47 767.587 790.528 767.784 C 856.506 784.148 922.435 800.722 988.44 816.984 C 980.543 809.609 972.32 802.574 964.288 795.349 C 841.099 685.857 717.923 576.352 594.733 466.86 Z  M 769.45 804.908 C 725.514 854.813 681.606 904.746 637.671 954.651 C 636.905 955.295 637.027 956.313 637.006 957.229 C 637.04 1012.704 637 1068.173 637.034 1123.641 C 656.233 1118.424 674.307 1107.583 686.098 1091.314 C 695.541 1078.498 701.186 1063.213 704.056 1047.643 C 707.984 1027.446 707.149 1006.748 706.464 986.3 C 715.216 982.595 724.049 979.081 732.59 974.902 C 766.057 959.325 797.482 939.312 825.535 915.295 C 859.294 960.017 897.273 1001.395 937.218 1040.628 C 937.096 1081.972 929.98 1122.969 920.068 1163.004 C 899.769 1167.624 879.606 1173.044 860.101 1180.378 C 845.603 1185.595 831.051 1190.711 816.22 1194.937 C 815.21 1195.1 813.975 1195.738 813.093 1194.903 C 797.889 1182.027 780.406 1171.165 760.861 1166.457 C 745.372 1162.644 728.635 1162.61 713.594 1168.309 C 699.571 1173.499 687.509 1183.038 677.767 1194.239 C 669.51 1203.601 662.746 1214.178 656.728 1225.087 C 703.16 1249.218 749.585 1273.371 796.044 1297.448 C 802.109 1298.778 808.432 1299.008 814.606 1299.843 C 847.801 1303.69 881.011 1307.462 914.206 1311.295 C 921.099 1312.204 928.073 1312.618 934.912 1313.839 C 943.012 1322.469 951.181 1331.071 959.783 1339.219 C 999.933 1377.835 1047.355 1409.47 1099.906 1428.453 C 1128.787 1438.975 1159.031 1445.515 1189.601 1448.521 C 1206.236 1471.262 1222.939 1493.948 1239.595 1516.669 C 1242.464 1520.319 1244.886 1524.363 1248.021 1527.789 C 1255.517 1521.974 1262.817 1515.882 1269.798 1509.457 C 1307.777 1474.925 1337.587 1431.879 1358.401 1385.06 C 1358.917 1383.392 1360.735 1381.58 1359.46 1379.877 C 1256.501 1214.395 1153.522 1048.919 1050.557 883.436 C 1048.271 880.024 1046.412 876.272 1043.881 873.056 C 1028.169 868.524 1012.334 864.393 996.581 859.983 C 947.13 846.428 897.68 832.852 848.229 819.284 C 823.697 812.635 799.239 805.688 774.667 799.216 C 772.665 800.837 771.247 803.069 769.45 804.908 Z " fill="rgb(0,0,0)" vector-effect="non-scaling-stroke" stroke-width="0.064" stroke="rgb(0,0,0)" stroke-linejoin="miter" stroke-linecap="butt" stroke-miterlimit="4"/></g><g id="_x23_000000ff"><path d=" M 339.151 345.265 C 326.404 325.97 307.91 311.086 287.801 300 C 242.604 398.569 197.489 497.172 152.203 595.7 C 150.148 577.464 148.411 559.187 146.491 540.931 C 143.696 513.142 138.743 485.252 128.099 459.302 C 122.705 446.337 115.738 433.888 106.443 423.305 C 98.458 414.085 88.587 406.459 77.508 401.337 C 64.415 395.197 49.815 392.796 35.425 392.925 C 28.688 393.196 21.965 393.793 15.242 394.37 C 21.972 460.096 21.219 526.284 19.821 592.254 C 17.087 697.384 9.258 802.337 -1.861 906.903 C -2.194 908.674 -3.442 910.085 -4.317 911.625 C -98.232 1063.749 -192.154 1215.88 -286.076 1368.005 C -288.654 1372.435 -291.687 1376.621 -294 1381.2 C -282.854 1406.797 -270.126 1431.743 -255.452 1455.502 C -241.747 1477.591 -226.164 1498.616 -207.962 1517.232 C -188.151 1537.382 -164.895 1554.614 -138.538 1565.163 C -137.798 1565.387 -136.91 1566.045 -136.448 1565.075 C -116.143 1539.695 -96.034 1514.145 -75.702 1488.792 C -69.175 1487.171 -62.465 1486.303 -55.919 1484.735 C 0.52 1472.707 54.727 1449.884 102.278 1417.123 C 123.513 1402.584 143.458 1386.18 161.993 1368.337 C 167.454 1363.168 172.604 1357.679 177.957 1352.414 C 208.126 1348.14 238.398 1344.436 268.595 1340.345 C 284.395 1338.228 300.23 1336.336 315.997 1334.015 C 340.305 1321.709 364.416 1308.961 388.65 1296.492 C 419.925 1280.263 451.215 1264.063 482.49 1247.848 C 485.855 1245.948 489.532 1244.551 492.687 1242.319 C 482.985 1217.529 471.018 1193.316 454.295 1172.461 C 445.787 1162.02 436.099 1152.42 424.932 1144.835 C 402.89 1129.686 374.864 1123.492 348.534 1128.315 C 325.379 1132.42 303.86 1142.834 284.172 1155.398 C 283.33 1156.084 282.286 1156.043 281.336 1155.615 C 256.315 1146.443 231.22 1137.406 205.67 1129.794 C 203.296 1115.534 201.518 1101.171 200.019 1086.789 C 199.069 1076.192 198.113 1065.567 198.255 1054.916 C 228.764 1027.175 257.489 997.216 281.627 963.708 C 296.621 974.081 311.94 984.007 327.781 993.05 C 340.149 1000.296 352.876 1006.917 365.61 1013.484 C 368.107 1041.151 372.625 1069.177 384.179 1094.692 C 389.43 1106.382 396.228 1117.433 404.735 1127.047 C 414.233 1137.8 426.018 1146.538 439.091 1152.454 C 457.029 1160.71 476.961 1163.75 496.588 1163.675 C 496.622 1090.106 496.574 1016.531 496.608 942.955 C 496.595 941.632 496.642 940.133 495.591 939.162 C 448.453 885.248 401.411 831.238 354.26 777.336 C 358.215 772.425 362.937 768.151 367.211 763.51 C 404.505 724.589 441.859 685.728 479.125 646.793 C 498.494 625.958 516.561 603.672 530.537 578.814 C 540.91 560.117 549.051 539.744 551.154 518.312 C 552.993 501.792 550.516 485.008 545.482 469.241 C 538.895 448.861 527.823 430.218 514.953 413.203 C 461.181 461.446 407.347 509.628 353.568 557.864 C 340.305 569.635 327.245 581.637 313.887 593.299 C 323.717 564.683 335.379 536.677 344.009 507.654 C 353.019 476.996 359.206 445.218 358.996 413.162 C 358.88 389.295 352.625 365.143 339.151 345.265 Z  M 311.79 365.19 C 322.659 378.399 328.432 395.442 328.805 412.47 C 329.375 433.454 325.366 454.221 320.556 474.546 C 313.31 504.085 303.412 532.898 292.713 561.352 C 282.984 586.962 273.283 612.593 263.554 638.211 C 262.496 640.192 260.46 641.413 258.886 642.967 C 225.874 672.818 192.882 702.696 159.89 732.567 C 140.188 750.274 120.697 768.218 100.894 785.803 C 105.073 776.176 109.618 766.719 113.933 757.16 C 175.826 622.383 237.577 487.545 299.518 352.802 C 303.934 356.595 308.14 360.652 311.79 365.19 Z  M 71.775 439.668 C 82.841 446.961 92.142 456.928 98.553 468.529 C 105.493 480.822 109.327 494.574 112.081 508.339 C 117.176 534.628 118.499 561.48 118.953 588.197 C 119.361 615.823 117.325 643.387 115.575 670.932 C 115.473 672.573 115.453 674.283 114.706 675.796 C 88.947 731.651 63.2 787.513 37.467 843.382 C 37.691 839.087 38.295 834.82 38.688 830.546 C 48.994 726.129 52.84 621.169 52.671 516.27 C 52.535 487.192 51.049 458.156 49.686 429.119 C 57.447 431.71 64.917 435.204 71.775 439.668 Z  M 508.786 466.86 C 515.374 480.734 519.987 496.005 519.152 511.514 C 518.63 520.042 516.669 528.434 513.908 536.507 C 507.891 553.746 498.474 569.574 488.067 584.493 C 471.391 608.129 451.927 629.629 431.621 650.172 C 393.026 688.924 354.382 727.621 315.773 766.353 C 315.06 767.187 314.05 767.587 312.991 767.784 C 247.014 784.148 181.084 800.722 115.08 816.984 C 122.977 809.609 131.199 802.574 139.232 795.349 C 262.421 685.857 385.597 576.352 508.786 466.86 Z  M 334.07 804.908 C 378.005 854.813 421.913 904.746 465.848 954.651 C 466.615 955.295 466.493 956.313 466.513 957.229 C 466.479 1012.704 466.52 1068.173 466.486 1123.641 C 447.286 1118.424 429.213 1107.583 417.422 1091.314 C 407.978 1078.498 402.334 1063.213 399.464 1047.643 C 395.536 1027.446 396.37 1006.748 397.055 986.3 C 388.304 982.595 379.471 979.081 370.929 974.902 C 337.462 959.325 306.037 939.312 277.984 915.295 C 244.226 960.017 206.247 1001.395 166.301 1040.628 C 166.423 1081.972 173.54 1122.969 183.452 1163.004 C 203.75 1167.624 223.913 1173.044 243.418 1180.378 C 257.916 1185.595 272.469 1190.711 287.299 1194.937 C 288.31 1195.1 289.545 1195.738 290.427 1194.903 C 305.63 1182.027 323.113 1171.165 342.659 1166.457 C 358.147 1162.644 374.884 1162.61 389.925 1168.309 C 403.948 1173.499 416.011 1183.038 425.753 1194.239 C 434.01 1203.601 440.773 1214.178 446.791 1225.087 C 400.359 1249.218 353.934 1273.371 307.476 1297.448 C 301.41 1298.778 295.087 1299.008 288.914 1299.843 C 255.718 1303.69 222.509 1307.462 189.313 1311.295 C 182.421 1312.204 175.446 1312.618 168.608 1313.839 C 160.507 1322.469 152.339 1331.071 143.737 1339.219 C 103.587 1377.835 56.165 1409.47 3.614 1428.453 C -25.267 1438.975 -55.512 1445.515 -86.082 1448.521 C -102.717 1471.262 -119.42 1493.948 -136.075 1516.669 C -138.945 1520.319 -141.367 1524.363 -144.501 1527.789 C -151.998 1521.975 -159.298 1515.882 -166.279 1509.457 C -204.257 1474.925 -234.068 1431.879 -254.882 1385.06 C -255.397 1383.392 -257.216 1381.58 -255.94 1379.877 C -152.982 1214.395 -50.003 1048.919 52.963 883.436 C 55.249 880.024 57.108 876.272 59.638 873.056 C 75.351 868.524 91.185 864.393 106.938 859.983 C 156.389 846.428 205.84 832.852 255.291 819.284 C 279.823 812.635 304.28 805.688 328.853 799.216 C 330.854 800.837 332.272 803.069 334.07 804.908 Z " fill="rgb(0,0,0)" vector-effect="non-scaling-stroke" stroke-width="0.064" stroke="rgb(0,0,0)" stroke-linejoin="miter" stroke-linecap="butt" stroke-miterlimit="4"/></g></g></svg>